<svg xmlns="http://www.w3.org/2000/svg" width="90" height="90" viewBox="0 0 90 90"><g fill-rule="evenodd" clip-rule="evenodd"><path d="M34.867 27.983C40.607 22.34 46.09 16.933 51.6 11.55c.842-.822 1.716-1.673 2.724-2.255 2.423-1.4 4.657-.286 5.11 2.47.118.708.086 1.445.086 2.17.005 12.128.026 24.257-.025 36.386-.007 1.49.384 2.564 1.466 3.633 7.644 7.55 15.222 15.17 22.814 22.77.51.512 1.046 1.02 1.45 1.612.932 1.363.712 3.287-.5 4.317-1.312 1.114-2.747 1.192-4.16.19-.587-.415-1.1-.94-1.612-1.453C56.997 59.442 35.045 37.49 13.094 15.54c-.42-.42-.854-.825-1.248-1.268-1.432-1.612-1.45-3.646-.064-4.957 1.317-1.246 3.296-1.23 4.784.23 4.188 4.11 8.322 8.272 12.46 12.43 1.904 1.916 3.766 3.872 5.84 6.008zM15.202 46.035c0-3.227-.02-6.455.008-9.683.024-2.713 1.112-3.706 3.846-3.936 1.98-.167 3.417.426 4.854 1.878C35.304 45.812 46.777 57.25 58.26 68.68c.91.903 1.345 1.802 1.29 3.097-.098 2.368.008 4.743-.054 7.112-.045 1.758-.343 3.57-2.176 4.32-1.827.75-3.3-.29-4.576-1.54-7.01-6.867-14.037-13.72-21-20.634-1.02-1.015-2.034-1.46-3.468-1.41-2.96.097-5.927.045-8.89.022-3.124-.023-4.167-1.058-4.182-4.128-.015-3.16-.003-6.323-.002-9.485z"/></g></svg>