<svg xmlns="http://www.w3.org/2000/svg" width="90" height="90" viewBox="0 0 90 90"><path d="M27.647 32.09c-.42.11-.864.18-1.372.163-2.96-.098-5.927-.046-8.89-.023-3.124.023-4.167 1.058-4.182 4.128-.003.654 0 1.31 0 1.962-.01 2.467-.003 4.933-.002 7.4v.124c.002 2.635-.007 5.268.003 7.902 0 .59-.002 1.184 0 1.773.015 3.068 1.058 4.103 4.18 4.128 2.965.02 5.93.074 8.892-.023.534-.018.997.057 1.436.18 12.807 11.844 17.044 16 23.033 21.866 1.274 1.25 2.75 2.29 4.575 1.54.966-.395 1.498-1.088 1.8-1.91.14-.33.25-.696.315-1.103.116-.71.123-59.924.114-60.096-.017-.397-.028-4.51-.028-6.166 0-.725.03-1.46-.087-2.17-.035-.22-.088-.427-.146-.626-.25-1.063-.79-1.987-1.97-2.47-1.826-.748-3.302.29-4.575 1.54-6.004 5.88-12.01 11.757-17.986 17.664L44.74 16.09"/><path fill="#15000C" d="M68.555 73.466c-.633 0-1.27-.17-1.85-.522-1.67-1.023-2.19-3.205-1.17-4.873 9.587-15.628 9.686-29.918.31-44.976-1.032-1.66-.524-3.846 1.136-4.88 1.66-1.035 3.847-.527 4.882 1.135 10.804 17.35 10.71 34.5-.285 52.423-.67 1.09-1.832 1.693-3.022 1.693z"/></svg>