<?xml version="1.0" encoding="utf-8"?>
<!-- Generator: Adobe Illustrator 16.0.3, SVG Export Plug-In . SVG Version: 6.00 Build 0)  -->
<!DOCTYPE svg PUBLIC "-//W3C//DTD SVG 1.1//EN" "http://www.w3.org/Graphics/SVG/1.1/DTD/svg11.dtd">
<svg version="1.1" id="Layer_1" xmlns="http://www.w3.org/2000/svg" xmlns:xlink="http://www.w3.org/1999/xlink" x="0px" y="0px"
	 width="90px" height="90px" viewBox="0 0 90 90" enable-background="new 0 0 90 90" xml:space="preserve">
<path d="M27.647,32.091c-0.421,0.11-0.864,0.179-1.372,0.162c-2.961-0.098-5.927-0.046-8.891-0.023
	c-3.123,0.023-4.166,1.058-4.181,4.128c-0.003,0.654,0,1.309,0,1.962c-0.009,2.467-0.003,4.933-0.002,7.399c0,0.043,0,0.084,0,0.125
	c0.001,2.635-0.008,5.268,0.002,7.902c0.001,0.591-0.002,1.184,0,1.773c0.015,3.069,1.058,4.104,4.181,4.129
	c2.964,0.021,5.93,0.074,8.891-0.023c0.534-0.018,0.997,0.057,1.436,0.18c12.806,11.844,17.043,16,23.032,21.866
	c1.274,1.249,2.749,2.288,4.575,1.54c0.966-0.396,1.498-1.089,1.8-1.91c0.14-0.332,0.249-0.697,0.315-1.104
	c0.116-0.709,0.123-59.924,0.114-60.096c-0.017-0.398-0.028-4.51-0.028-6.167c0-0.725,0.03-1.461-0.086-2.17
	c-0.035-0.221-0.088-0.427-0.146-0.626c-0.25-1.063-0.79-1.987-1.971-2.47c-1.825-0.748-3.301,0.291-4.574,1.54
	c-6.004,5.881-12.01,11.757-17.986,17.664L44.74,16.089"/>
<g>
	<path fill="#15000C" d="M68.555,73.466c-0.633,0-1.271-0.169-1.851-0.522c-1.668-1.023-2.19-3.205-1.168-4.873
		c9.586-15.629,9.685-29.919,0.31-44.977c-1.033-1.661-0.525-3.846,1.135-4.88c1.66-1.035,3.846-0.527,4.881,1.135
		C82.666,36.7,82.572,53.85,71.577,71.773C70.908,72.863,69.745,73.466,68.555,73.466z"/>
</g>
</svg>
