<?xml version="1.0" encoding="utf-8"?>
<!-- Generator: Adobe Illustrator 16.0.3, SVG Export Plug-In . SVG Version: 6.00 Build 0)  -->
<!DOCTYPE svg PUBLIC "-//W3C//DTD SVG 1.1//EN" "http://www.w3.org/Graphics/SVG/1.1/DTD/svg11.dtd">
<svg version="1.1" id="Layer_1" xmlns="http://www.w3.org/2000/svg" xmlns:xlink="http://www.w3.org/1999/xlink" x="0px" y="0px"
	 width="90px" height="90px" viewBox="0 0 90 90" enable-background="new 0 0 90 90" xml:space="preserve">
<g>
	<g>
		<path d="M32.867,27.983C38.606,22.34,44.09,16.933,49.6,11.551c0.842-0.823,1.717-1.674,2.725-2.256
			c2.423-1.4,4.656-0.286,5.111,2.469c0.116,0.709,0.084,1.446,0.084,2.17c0.006,12.129,0.026,24.258-0.024,36.386
			c-0.007,1.488,0.384,2.563,1.466,3.633c7.643,7.551,15.221,15.169,22.813,22.771c0.512,0.51,1.047,1.02,1.451,1.61
			c0.932,1.362,0.711,3.287-0.5,4.317c-1.313,1.113-2.748,1.191-4.16,0.189c-0.588-0.414-1.102-0.941-1.612-1.453
			C54.997,59.443,33.045,37.492,11.094,15.54c-0.419-0.419-0.854-0.825-1.248-1.268c-1.432-1.612-1.451-3.646-0.064-4.957
			c1.317-1.246,3.296-1.229,4.784,0.231c4.188,4.108,8.322,8.271,12.46,12.43C28.93,23.891,30.792,25.847,32.867,27.983z"/>
		<path d="M13.202,46.035c0-3.227-0.021-6.455,0.008-9.683c0.024-2.713,1.112-3.706,3.846-3.936c1.98-0.167,3.417,0.426,4.854,1.878
			C33.304,45.813,44.777,57.25,56.26,68.68c0.909,0.903,1.346,1.803,1.291,3.098c-0.099,2.367,0.008,4.742-0.055,7.111
			c-0.045,1.76-0.344,3.57-2.176,4.322c-1.827,0.748-3.301-0.291-4.576-1.54c-7.012-6.868-14.037-13.72-21-20.635
			c-1.021-1.015-2.034-1.459-3.468-1.411c-2.961,0.098-5.927,0.046-8.891,0.023c-3.123-0.023-4.166-1.059-4.181-4.129
			C13.189,52.359,13.201,49.197,13.202,46.035z"/>
	</g>
</g>
</svg>
