<svg xmlns="http://www.w3.org/2000/svg" width="90" height="90" viewBox="0 0 90 90"><path d="M45 7.207C24.16 7.207 7.207 24.16 7.207 45 7.207 65.84 24.16 82.796 45 82.796c20.84 0 37.796-16.955 37.796-37.796C82.796 24.16 65.84 7.207 45 7.207zm19.698 39.968c-.51.306-1.046.56-1.576.825-9.086 4.54-18.17 9.08-27.257 13.618-.357.178-.715.356-1.087.5-1.747.678-3.44-.484-3.444-2.362-.006-3.25-.002-6.498-.002-9.748v-5.03c0-4.912-.002-9.824.002-14.737 0-1.476 1.145-2.645 2.558-2.55.46.03.935.202 1.353.41 3.87 1.908 7.728 3.836 11.587 5.764 5.84 2.918 11.68 5.837 17.518 8.76.887.445 1.543 1.094 1.64 2.138.1 1.077-.396 1.87-1.292 2.413zM45 0C20.147 0 0 20.145 0 45 0 69.85 20.147 90 45 90c24.854 0 45-20.148 45-45C90 20.145 69.854 0 45 0zm0 86.184C22.292 86.184 3.816 67.71 3.816 45 3.816 22.292 22.292 3.816 45 3.816 67.71 3.816 86.184 22.29 86.184 45c0 22.71-18.475 41.184-41.184 41.184z"/></svg>