<svg xmlns="http://www.w3.org/2000/svg" width="90" height="90" viewBox="0 0 90 90"><path d="M45 7.207C24.16 7.207 7.207 24.16 7.207 45 7.207 65.84 24.16 82.796 45 82.796c20.84 0 37.796-16.955 37.796-37.796C82.796 24.16 65.84 7.207 45 7.207zm16.5 52.418c0 1.33-.542 1.874-1.877 1.874h-29.25c-1.33 0-1.873-.546-1.873-1.878v-29.25c0-1.33.545-1.873 1.877-1.873h29.25c1.33 0 1.873.544 1.873 1.878v29.247zM45 0C20.147 0 0 20.145 0 45 0 69.85 20.147 90 45 90c24.854 0 45-20.148 45-45C90 20.145 69.854 0 45 0zm0 86.184C22.292 86.184 3.816 67.71 3.816 45 3.816 22.292 22.292 3.816 45 3.816 67.71 3.816 86.184 22.29 86.184 45c0 22.71-18.475 41.184-41.184 41.184z"/></svg>