<?xml version="1.0" encoding="utf-8"?>
<!-- Generator: Adobe Illustrator 16.0.3, SVG Export Plug-In . SVG Version: 6.00 Build 0)  -->
<!DOCTYPE svg PUBLIC "-//W3C//DTD SVG 1.1//EN" "http://www.w3.org/Graphics/SVG/1.1/DTD/svg11.dtd">
<svg version="1.1" id="Layer_1" xmlns="http://www.w3.org/2000/svg" xmlns:xlink="http://www.w3.org/1999/xlink" x="0px" y="0px"
	 width="90px" height="90px" viewBox="0 0 90 90" enable-background="new 0 0 90 90" xml:space="preserve">
<g>
	<path d="M79.003,37.794c0,0.566-0.375,1.234-1.146,1.995L63.15,54.213l3.42,20.441v0.709c0,0.669-0.146,1.147-0.416,1.428
		c-0.293,0.471-0.669,0.722-1.147,0.722c-0.381,0-0.961-0.19-1.71-0.583l-18.295-9.568L26.719,76.93
		c-0.761,0.393-1.334,0.583-1.72,0.583c-0.565,0-0.997-0.251-1.283-0.722c-0.281-0.28-0.428-0.759-0.428-1.428
		c0-0.294,0.05-0.521,0.146-0.709l3.423-20.441L12.003,39.789c-0.667-1.043-1-1.71-1-1.995c0-1.051,0.761-1.666,2.284-1.859
		l20.577-2.998L43,14.362c0.575-1.139,1.24-1.71,2.002-1.71c0.765,0,1.429,0.571,2.002,1.71l9.138,18.574l20.57,2.998
		C78.24,36.128,79.003,36.743,79.003,37.794z"/>
</g>
</svg>
