<?xml version="1.0" encoding="utf-8"?>
<!-- Generator: Adobe Illustrator 16.0.3, SVG Export Plug-In . SVG Version: 6.00 Build 0)  -->
<!DOCTYPE svg PUBLIC "-//W3C//DTD SVG 1.1//EN" "http://www.w3.org/Graphics/SVG/1.1/DTD/svg11.dtd">
<svg version="1.1" id="Layer_1" xmlns="http://www.w3.org/2000/svg" xmlns:xlink="http://www.w3.org/1999/xlink" x="0px" y="0px"
	 width="90px" height="90px" viewBox="0 0 90 90" enable-background="new 0 0 90 90" xml:space="preserve">
<g>
	<g>
		<path fill-rule="evenodd" clip-rule="evenodd" d="M34.867,27.983c5.739-5.643,11.223-11.05,16.732-16.432
			c0.843-0.823,1.717-1.674,2.725-2.256c2.423-1.4,4.657-0.286,5.111,2.469c0.117,0.709,0.085,1.446,0.085,2.17
			c0.005,12.129,0.026,24.258-0.025,36.387c-0.007,1.488,0.384,2.563,1.466,3.632c7.643,7.551,15.221,15.169,22.813,22.771
			c0.511,0.511,1.046,1.02,1.45,1.611c0.932,1.363,0.712,3.287-0.5,4.317c-1.312,1.114-2.747,1.192-4.16,0.19
			c-0.587-0.415-1.101-0.941-1.612-1.453C56.997,59.443,35.045,37.492,13.094,15.54c-0.419-0.419-0.854-0.825-1.248-1.268
			c-1.432-1.612-1.451-3.646-0.064-4.957c1.317-1.246,3.296-1.229,4.784,0.231c4.188,4.108,8.322,8.271,12.46,12.43
			C30.93,23.891,32.792,25.847,34.867,27.983z"/>
		<path fill-rule="evenodd" clip-rule="evenodd" d="M15.202,46.035c0-3.227-0.021-6.455,0.008-9.683
			c0.024-2.713,1.112-3.706,3.846-3.936c1.98-0.167,3.417,0.426,4.854,1.878C35.304,45.812,46.777,57.25,58.26,68.679
			c0.909,0.904,1.345,1.803,1.291,3.098c-0.099,2.368,0.007,4.743-0.055,7.112c-0.045,1.759-0.343,3.57-2.176,4.322
			c-1.827,0.748-3.301-0.291-4.576-1.54c-7.011-6.868-14.037-13.72-21-20.635c-1.021-1.015-2.034-1.459-3.468-1.411
			c-2.961,0.098-5.927,0.046-8.891,0.023c-3.123-0.023-4.166-1.058-4.181-4.128C15.189,52.359,15.201,49.197,15.202,46.035z"/>
	</g>
</g>
</svg>
