<?xml version="1.0" encoding="utf-8"?>
<!-- Generator: Adobe Illustrator 16.0.3, SVG Export Plug-In . SVG Version: 6.00 Build 0)  -->
<!DOCTYPE svg PUBLIC "-//W3C//DTD SVG 1.1//EN" "http://www.w3.org/Graphics/SVG/1.1/DTD/svg11.dtd">
<svg version="1.1" id="Layer_1" xmlns="http://www.w3.org/2000/svg" xmlns:xlink="http://www.w3.org/1999/xlink" x="0px" y="0px"
	 width="90px" height="90px" viewBox="0 0 90 90" enable-background="new 0 0 90 90" xml:space="preserve">
<path d="M79.003,37.794c0-1.051-0.763-1.666-2.291-1.859l-20.57-2.998l-9.138-18.574c-0.573-1.139-1.237-1.71-2.002-1.71
	c-0.762,0-1.427,0.571-2.002,1.71l-9.137,18.574l-20.577,2.998c-1.522,0.194-2.284,0.809-2.284,1.859c0,0.285,0.334,0.952,1,1.995
	l14.854,14.424l-3.423,20.441c-0.097,0.188-0.146,0.415-0.146,0.709c0,0.669,0.146,1.147,0.428,1.428
	c0.286,0.471,0.718,0.722,1.283,0.722c0.386,0,0.959-0.19,1.72-0.583l18.283-9.568l18.295,9.568c0.749,0.393,1.329,0.583,1.71,0.583
	c0.479,0,0.854-0.251,1.147-0.722c0.27-0.28,0.416-0.759,0.416-1.428v-0.709l-3.42-20.441l14.706-14.424
	C78.628,39.028,79.003,38.36,79.003,37.794z M71.089,40.88L59.418,52.337l2.709,16.233v0.559c0,0.532-0.117,0.915-0.328,1.137
	c-0.23,0.369-0.527,0.575-0.907,0.575c-0.306,0-0.77-0.153-1.36-0.47l-14.529-7.593l-14.516,7.593
	c-0.604,0.316-1.061,0.47-1.369,0.47c-0.448,0-0.791-0.206-1.019-0.575c-0.22-0.222-0.339-0.604-0.339-1.137
	c0-0.234,0.04-0.412,0.119-0.559l2.716-16.233L18.798,40.88c-0.53-0.828-0.795-1.358-0.795-1.582c0-0.839,0.604-1.324,1.812-1.477
	l16.342-2.383l7.253-14.753c0.458-0.9,0.987-1.355,1.592-1.355c0.607,0,1.135,0.455,1.592,1.355l7.251,14.753l16.339,2.383
	c1.213,0.153,1.819,0.638,1.819,1.477C72.003,39.746,71.71,40.273,71.089,40.88z"/>
</svg>
