<?xml version="1.0" encoding="utf-8"?>
<!-- Generator: Adobe Illustrator 16.0.3, SVG Export Plug-In . SVG Version: 6.00 Build 0)  -->
<!DOCTYPE svg PUBLIC "-//W3C//DTD SVG 1.1//EN" "http://www.w3.org/Graphics/SVG/1.1/DTD/svg11.dtd">
<svg version="1.1" id="Layer_1" xmlns="http://www.w3.org/2000/svg" xmlns:xlink="http://www.w3.org/1999/xlink" x="0px" y="0px"
	 width="90px" height="90px" viewBox="0 0 90 90" enable-background="new 0 0 90 90" xml:space="preserve">
<g>
	<path d="M45,7.207C24.161,7.207,7.207,24.161,7.207,45c0,20.841,16.954,37.796,37.793,37.796c20.841,0,37.796-16.955,37.796-37.796
		C82.796,24.161,65.841,7.207,45,7.207z M64.698,47.175c-0.509,0.306-1.046,0.56-1.576,0.825c-9.086,4.54-18.17,9.08-27.257,13.618
		c-0.357,0.178-0.715,0.356-1.087,0.501c-1.747,0.677-3.441-0.485-3.444-2.363c-0.006-3.249-0.002-6.498-0.002-9.748
		c0-1.676,0-3.354,0-5.029c0-4.913-0.002-9.825,0.002-14.738c0-1.477,1.145-2.646,2.558-2.552c0.459,0.03,0.935,0.203,1.353,0.41
		c3.869,1.909,7.728,3.837,11.587,5.765c5.84,2.918,11.68,5.837,17.518,8.761c0.887,0.444,1.543,1.093,1.639,2.137
		C66.089,45.839,65.594,46.632,64.698,47.175z"/>
	<path d="M45-0.001c-24.853,0-45,20.147-45,45c0,24.853,20.147,45,45,45c24.854,0,45-20.147,45-45C90,20.146,69.854-0.001,45-0.001z
		 M45,86.184C22.292,86.184,3.816,67.709,3.816,45C3.816,22.292,22.292,3.816,45,3.816c22.709,0,41.184,18.475,41.184,41.184
		C86.184,67.709,67.709,86.184,45,86.184z"/>
</g>
</svg>
