<?xml version="1.0" encoding="utf-8"?>
<!-- Generator: Adobe Illustrator 16.0.3, SVG Export Plug-In . SVG Version: 6.00 Build 0)  -->
<!DOCTYPE svg PUBLIC "-//W3C//DTD SVG 1.1//EN" "http://www.w3.org/Graphics/SVG/1.1/DTD/svg11.dtd">
<svg version="1.1" id="Layer_2" xmlns="http://www.w3.org/2000/svg" xmlns:xlink="http://www.w3.org/1999/xlink" x="0px" y="0px"
	 width="90px" height="90px" viewBox="0 0 90 90" enable-background="new 0 0 90 90" xml:space="preserve">
<path d="M78.348,59.295c-1.391,2.229-2.875,4.387-4.685,6.309c-2.3,2.442-4.952,4.424-7.806,6.158
	c-0.646,0.322-1.291,0.645-1.938,0.967c-1.465,0.611-2.93,1.224-4.395,1.834c-0.428,0.06-0.838,0.172-1.221,0.373
	c-1.23,0.353-2.462,0.705-3.693,1.058c-0.398,0.075-0.799,0.153-1.197,0.229c-1.064,0.217-2.131,0.434-3.195,0.651
	c-0.363-0.024-0.718,0.013-1.055,0.162c-0.996,0.124-1.992,0.248-2.988,0.372c-0.34,0.015-0.68,0.029-1.02,0.044
	c-0.889,0.062-1.778,0.12-2.667,0.182c-0.349,0.017-0.697,0.033-1.045,0.05c-0.883,0.024-1.767,0.049-2.651,0.071
	c-0.293-0.003-0.586-0.006-0.879-0.01c-0.199-0.021-0.397-0.043-0.691-0.075c0.637-0.41,1.349-0.295,1.922-0.604
	c0.368,0.015,0.72-0.055,1.055-0.209c1.192-0.209,2.376-0.451,3.512-0.885c0.499-0.045,0.959-0.222,1.414-0.416
	c1.397-0.363,2.749-0.847,4.036-1.504c0.635-0.162,1.207-0.459,1.752-0.813c5.382-2.762,10.068-6.358,13.545-11.379
	c0.963-1.391,1.848-2.842,2.325-4.492c0.379-0.465,0.515-1.028,0.647-1.594c0.49-1.135,0.771-2.328,0.994-3.539
	c0.067-0.402,0.135-0.807,0.203-1.209c0.178-0.928,0.279-1.863,0.23-2.812c0-0.292,0-0.584,0-0.876
	c0.09-0.839,0.024-1.673-0.082-2.505c-0.043-0.279-0.088-0.559-0.131-0.838c-0.035-0.805-0.187-1.586-0.465-2.342
	c-0.011-0.232-0.021-0.463-0.175-0.657c-0.092-0.674-0.354-1.293-0.608-1.915c-0.084-0.182-0.168-0.363-0.252-0.545
	c-0.211-0.69-0.521-1.331-0.931-1.924c-0.104-0.18-0.211-0.359-0.315-0.539c-0.254-0.594-0.604-1.125-1.041-1.599
	c-0.127-0.168-0.254-0.337-0.381-0.506c-0.334-0.534-0.729-1.017-1.215-1.421c-0.181-0.181-0.361-0.362-0.543-0.543
	c-0.402-0.488-0.867-0.905-1.42-1.221c-0.168-0.126-0.336-0.253-0.504-0.379c-0.48-0.425-1.023-0.754-1.613-1.004
	c-0.14-0.071-0.279-0.143-0.418-0.214c-0.632-0.398-1.298-0.716-2.031-0.875c-0.24-0.092-0.48-0.185-0.721-0.277
	c-0.676-0.24-1.367-0.416-2.078-0.508c-0.299-0.068-0.599-0.16-0.908-0.043c-0.742-0.235-1.5-0.317-2.275-0.222
	c-0.354-0.089-0.707-0.08-1.059,0.016c-1.016-0.018-2.016,0.099-2.99,0.391c-0.434-0.001-0.84,0.112-1.228,0.3
	c-1.57,0.345-3.033,0.95-4.396,1.799c-1.926,0.911-3.549,2.243-5.09,3.684c-1.027,0.959-1.017,0.97,0.171,1.722
	c0.446,0.318,0.892,0.636,1.338,0.955c0.165,0.122,0.329,0.243,0.493,0.365c0.556,0.404,1.111,0.808,1.667,1.211
	c0.17,0.122,0.34,0.243,0.511,0.364c0.429,0.397,0.89,0.75,1.407,1.027c0.241,0.176,0.482,0.351,0.723,0.527
	c0.414,0.346,0.827,0.691,1.241,1.037c0.104,0.121,0.208,0.242,0.313,0.363c0.319,0.613,0.567,1.254,0.739,1.924
	c0.006,0.293,0.012,0.587,0.018,0.88c-0.354,2.352-1.914,3.505-4.058,4.076c-0.49,0.099-0.973,0.217-1.408,0.477
	c-1.321,0.319-2.604,0.756-3.868,1.251c-0.488,0.039-0.931,0.231-1.38,0.401c-1.304,0.434-2.642,0.77-3.907,1.318
	c-0.43,0.049-0.838,0.17-1.217,0.383c-1.32,0.318-2.598,0.768-3.866,1.246c-0.485,0.082-0.952,0.221-1.394,0.438
	c-1.313,0.381-2.624,0.762-3.89,1.281c-0.429,0.058-0.838,0.177-1.221,0.382c-1.288,0.413-2.577,0.825-3.865,1.237
	c-0.352,0.055-0.704,0.107-1.056,0.162c-0.76-0.021-1.509-0.121-2.251-0.287c-0.243-0.086-0.486-0.172-0.73-0.258
	c-0.464-0.291-0.929-0.582-1.394-0.873c-0.184-0.168-0.368-0.338-0.552-0.506c-0.351-0.472-0.701-0.943-1.052-1.414
	c-0.083-0.188-0.165-0.375-0.248-0.563c-0.157-0.691-0.314-1.383-0.472-2.073c-0.005-0.295-0.01-0.589-0.015-0.884
	c0.002-0.877,0.005-1.754,0.007-2.631c-0.002-0.295-0.004-0.59-0.007-0.885c0.002-0.877,0.005-1.754,0.007-2.631
	c-0.002-0.295-0.004-0.59-0.007-0.884c0.002-0.877,0.005-1.754,0.007-2.631c-0.002-0.295-0.004-0.589-0.007-0.884
	c0.002-0.877,0.005-1.754,0.007-2.631c-0.002-0.295-0.004-0.589-0.007-0.884c0.002-0.877,0.005-1.754,0.007-2.631
	c-0.002-0.295-0.004-0.589-0.007-0.884c0.002-0.877,0.005-1.754,0.007-2.631c-0.002-0.295-0.004-0.589-0.007-0.884
	c0.002-0.877,0.005-1.754,0.007-2.631c-0.002-0.295-0.004-0.589-0.007-0.884c0.002-0.877,0.005-1.754,0.007-2.631
	c0.006-0.294,0.011-0.588,0.017-0.882c0.461-1.89,1.636-3.07,3.523-3.543c0.354-0.009,0.708-0.019,1.063-0.027
	c0.682,0.076,1.3,0.352,1.92,0.621c0.09,0.061,0.181,0.122,0.271,0.183c0.521,0.447,1.057,0.876,1.667,1.201
	c0.169,0.126,0.338,0.252,0.507,0.379c0.437,0.389,0.895,0.749,1.415,1.022c0.196,0.233,0.437,0.406,0.716,0.525
	c0.357,0.359,0.773,0.636,1.213,0.881c0.194,0.238,0.444,0.398,0.722,0.521c0.324,0.353,0.618,0.572,1.072,0.11
	c2.544-2.585,5.426-4.753,8.435-6.761c0.697-0.402,1.394-0.804,2.091-1.205c1.649-0.762,3.299-1.524,4.949-2.286
	c0.452-0.154,0.905-0.308,1.357-0.462c1.18-0.348,2.359-0.696,3.539-1.044c0.411-0.101,0.822-0.202,1.233-0.304
	c1.055-0.175,2.11-0.35,3.166-0.525c0.34-0.02,0.679-0.04,1.018-0.06c0.891-0.052,1.781-0.105,2.671-0.158
	c0.354,0,0.707,0.001,1.062,0.002c0.757,0.023,1.515,0.046,2.271,0.069c0.287,0.124,0.589,0.128,0.894,0.109
	c0.754,0.094,1.506,0.188,2.258,0.281c0.293,0.053,0.585,0.107,0.877,0.16c0.712,0.154,1.424,0.309,2.136,0.462
	c0.208,0.148,0.444,0.194,0.694,0.2c0.57,0.182,1.141,0.363,1.711,0.544c0.197,0.075,0.395,0.15,0.591,0.226
	c0.694,0.28,1.392,0.561,2.086,0.841c0.133,0.067,0.267,0.135,0.399,0.202c0.687,0.355,1.373,0.711,2.061,1.066
	c0.096,0.044,0.189,0.089,0.284,0.134c0.545,0.344,1.09,0.687,1.635,1.031c0.243,0.172,0.487,0.344,0.729,0.516
	c0.395,0.299,0.787,0.598,1.18,0.897c0.255,0.216,0.509,0.432,0.763,0.648c0.41,0.361,0.819,0.721,1.229,1.082
	c0.177,0.171,0.354,0.343,0.531,0.515c0.404,0.417,0.811,0.833,1.215,1.25c0.173,0.186,0.344,0.371,0.516,0.557
	c0.402,0.486,0.807,0.971,1.208,1.457c0.123,0.161,0.247,0.322,0.37,0.482c0.316,0.453,0.635,0.906,0.951,1.359
	c0.162,0.235,0.322,0.47,0.481,0.704c0.337,0.556,0.673,1.112,1.011,1.667c0.045,0.096,0.092,0.193,0.138,0.29
	c0.299,0.589,0.599,1.178,0.897,1.768c0.104,0.236,0.209,0.473,0.313,0.709c0.265,0.635,0.53,1.269,0.795,1.903
	c0.063,0.174,0.126,0.349,0.188,0.523c0.188,0.644,0.373,1.287,0.562,1.93c0.09,0.3,0.181,0.599,0.271,0.898
	c0.141,0.697,0.279,1.395,0.42,2.091c0.052,0.236,0.104,0.471,0.154,0.707c0.076,0.759,0.153,1.519,0.23,2.278
	c0.037,0.295,0.074,0.59,0.113,0.885c0.006,0.878,0.014,1.756,0.02,2.635c-0.002,0.294-0.004,0.588-0.006,0.881
	c-0.098,0.945-0.196,1.891-0.294,2.836c-0.058,0.404-0.116,0.808-0.175,1.212c-0.238,1.062-0.478,2.121-0.715,3.183
	c-0.127,0.463-0.254,0.924-0.382,1.385c-0.565,1.41-1.134,2.819-1.7,4.229C78.988,58.014,78.668,58.652,78.348,59.295z"/>
</svg>
